<svg width="429" height="79" viewBox="0 0 429 79" fill="none" xmlns="http://www.w3.org/2000/svg">
<path d="M0.40625 4.73438H62.7969V17.7656H15.2656V32.3906H57.3594V44.625H15.2656V65.0156H63.7812V78H0.40625V4.73438ZM78.9219 0.234375H92.7969V78H78.9219V0.234375ZM107.281 50.3438C107.281 46.375 108.078 42.6562 109.672 39.1875C111.297 35.7188 113.594 32.6875 116.562 30.0938C119.562 27.5 123.172 25.4531 127.391 23.9531C131.641 22.4531 136.406 21.7031 141.688 21.7031C146.969 21.7031 151.719 22.4531 155.938 23.9531C160.188 25.4531 163.797 27.5 166.766 30.0938C169.766 32.6875 172.062 35.7188 173.656 39.1875C175.281 42.6562 176.094 46.375 176.094 50.3438C176.094 54.3125 175.281 58.0312 173.656 61.5C172.062 64.9688 169.766 68 166.766 70.5938C163.797 73.1875 160.188 75.2344 155.938 76.7344C151.719 78.2344 146.969 78.9844 141.688 78.9844C136.406 78.9844 131.641 78.2344 127.391 76.7344C123.172 75.2344 119.562 73.1875 116.562 70.5938C113.594 68 111.297 64.9688 109.672 61.5C108.078 58.0312 107.281 54.3125 107.281 50.3438ZM121.859 50.3438C121.859 52.5625 122.297 54.6719 123.172 56.6719C124.078 58.6406 125.375 60.3906 127.062 61.9219C128.781 63.4219 130.859 64.625 133.297 65.5312C135.766 66.4062 138.562 66.8438 141.688 66.8438C144.812 66.8438 147.594 66.4062 150.031 65.5312C152.5 64.625 154.578 63.4219 156.266 61.9219C157.984 60.3906 159.281 58.6406 160.156 56.6719C161.062 54.6719 161.516 52.5625 161.516 50.3438C161.516 48.125 161.062 46.0156 160.156 44.0156C159.281 42.0156 157.984 40.2656 156.266 38.7656C154.578 37.2344 152.5 36.0312 150.031 35.1562C147.594 34.25 144.812 33.7969 141.688 33.7969C138.562 33.7969 135.766 34.25 133.297 35.1562C130.859 36.0312 128.781 37.2344 127.062 38.7656C125.375 40.2656 124.078 42.0156 123.172 44.0156C122.297 46.0156 121.859 48.125 121.859 50.3438ZM182.469 22.6406H198.547L212.938 55.9219L217.156 65.25L222.312 53.1562L208.625 22.6406H222.125L228.828 39.0469L235.531 22.6406H249.031L235.297 53.1562L240.5 65.25L244.719 55.9219L259.109 22.6406H275.188L248.984 78H233.891L228.828 67.3125L223.766 78H208.672L182.469 22.6406ZM282.266 50.1562C282.266 46.4062 283.031 42.8281 284.562 39.4219C286.094 35.9844 288.297 32.9531 291.172 30.3281C294.047 27.7031 297.562 25.6094 301.719 24.0469C305.906 22.4844 310.656 21.7031 315.969 21.7031C321.25 21.7031 326 22.5 330.219 24.0938C334.469 25.6562 338.062 27.8125 341 30.5625C343.969 33.3125 346.234 36.5469 347.797 40.2656C349.391 43.9844 350.188 47.9688 350.188 52.2188C350.188 52.75 350.172 53.3281 350.141 53.9531C350.141 54.5469 350.109 55.0938 350.047 55.5938H297.734C298.328 57.25 299.281 58.7656 300.594 60.1406C301.938 61.5156 303.609 62.7031 305.609 63.7031C307.609 64.7031 309.922 65.4844 312.547 66.0469C315.172 66.5781 318.078 66.8438 321.266 66.8438C324.453 66.8438 327.625 66.5156 330.781 65.8594C333.938 65.1719 336.953 64.3125 339.828 63.2812L344.516 73.875C342.703 74.7188 340.859 75.4688 338.984 76.125C337.141 76.75 335.203 77.2812 333.172 77.7188C331.172 78.125 329.062 78.4375 326.844 78.6562C324.656 78.875 322.344 78.9844 319.906 78.9844C313.688 78.9844 308.234 78.2344 303.547 76.7344C298.859 75.2344 294.938 73.1875 291.781 70.5938C288.625 68 286.25 64.9531 284.656 61.4531C283.062 57.9531 282.266 54.1875 282.266 50.1562ZM335.469 44.7656C334.969 43.2344 334.188 41.8125 333.125 40.5C332.094 39.1562 330.797 38 329.234 37.0312C327.672 36.0312 325.859 35.25 323.797 34.6875C321.734 34.125 319.469 33.8438 317 33.8438C314.375 33.8438 311.984 34.1406 309.828 34.7344C307.672 35.3281 305.781 36.125 304.156 37.125C302.531 38.125 301.172 39.2812 300.078 40.5938C299.016 41.9062 298.234 43.2969 297.734 44.7656H335.469ZM365.141 22.6875H379.016V27.375C382.703 25.2812 386.219 23.8125 389.562 22.9688C392.938 22.125 396.234 21.7031 399.453 21.7031C403.672 21.7031 407.578 22.3281 411.172 23.5781C414.766 24.7969 417.875 26.625 420.5 29.0625C423.125 31.5 425.172 34.5469 426.641 38.2031C428.141 41.8281 428.891 46.0312 428.891 50.8125V78H415.062V53.0625C415.062 50.0312 414.625 47.3281 413.75 44.9531C412.906 42.5469 411.672 40.5312 410.047 38.9062C408.453 37.25 406.5 36 404.188 35.1562C401.906 34.2812 399.344 33.8438 396.5 33.8438C395 33.8438 393.453 34 391.859 34.3125C390.297 34.625 388.75 35.0781 387.219 35.6719C385.719 36.2344 384.266 36.9531 382.859 37.8281C381.453 38.6719 380.172 39.6406 379.016 40.7344V78H365.141V22.6875Z" fill="white"/>
</svg>
